<?xml version="1.0" standalone="no"?>
<!DOCTYPE svg PUBLIC "-//W3C//DTD SVG 20010904//EN"
 "http://www.w3.org/TR/2001/REC-SVG-20010904/DTD/svg10.dtd">
<svg version="1.0" xmlns="http://www.w3.org/2000/svg"
 width="239.000000pt" height="60.000000pt" viewBox="0 0 239.000000 60.000000"
 preserveAspectRatio="xMidYMid meet">

<g transform="translate(0.000000,60.000000) scale(0.100000,-0.100000)"
fill="currentColor" stroke="none">
<path d="M264 466 c-17 -13 -19 -29 -22 -168 -4 -200 -10 -192 140 -196 l114
-4 12 26 c11 24 10 26 -15 26 -15 0 -35 7 -45 17 -17 15 -19 15 -36 0 -10 -10
-29 -17 -42 -17 l-24 0 29 30 29 30 -34 35 -34 35 26 0 c14 0 36 -9 50 -19 24
-19 24 -19 37 1 11 18 21 20 98 16 70 -2 87 -6 99 -22 12 -18 14 -8 14 87 0
142 7 137 -210 137 -128 0 -171 -3 -186 -14z"/>
<path d="M1211 438 c0 -9 -7 -19 -13 -21 -10 -4 -10 -8 -1 -14 6 -4 13 -26 15
-48 3 -34 7 -40 28 -42 14 -2 19 0 10 4 -37 15 -43 77 -7 88 l22 8 -22 4 c-12
2 -24 12 -26 21 -4 16 -5 16 -6 0z"/>
<path d="M744 406 c-10 -8 -16 -18 -12 -21 4 -4 14 0 23 8 17 17 45 13 45 -7
0 -7 -15 -16 -32 -21 -23 -7 -33 -16 -33 -30 0 -17 7 -20 43 -21 l42 -2 0 42
c0 62 -32 84 -76 52z m54 -63 c-4 -23 -48 -31 -48 -10 0 9 6 18 13 20 25 11
38 7 35 -10z"/>
<path d="M863 413 c-27 -10 -13 -41 23 -53 19 -7 33 -17 31 -23 -5 -17 -38
-21 -48 -6 -4 7 -11 10 -15 6 -13 -13 13 -29 42 -25 43 5 46 42 5 56 -17 6
-31 15 -31 21 0 17 19 22 40 11 11 -6 20 -7 20 -1 0 17 -40 26 -67 14z"/>
<path d="M972 411 c-20 -12 -10 -46 15 -49 12 -2 27 -10 33 -17 17 -20 -16
-33 -41 -16 -11 6 -19 7 -19 1 0 -17 34 -28 58 -19 33 12 28 45 -8 58 -16 5
-30 14 -30 20 0 16 21 24 33 12 17 -17 31 -13 17 4 -14 17 -38 19 -58 6z"/>
<path d="M1086 407 c-21 -16 -24 -60 -6 -82 16 -19 64 -19 80 0 8 9 9 15 2 15
-6 0 -14 -4 -17 -10 -11 -17 -44 -11 -55 10 -10 19 -8 20 35 20 38 0 45 3 45
20 0 34 -51 51 -84 27z m48 -3 c28 -11 18 -34 -14 -34 -18 0 -30 5 -30 13 0
25 15 32 44 21z"/>
<path d="M2000 248 c0 -9 -6 -19 -12 -21 -10 -4 -10 -6 0 -6 7 -1 12 -16 12
-39 0 -39 14 -62 37 -62 20 0 15 17 -7 23 -30 8 -28 64 3 77 16 6 17 9 5 9 -9
1 -22 9 -27 19 -9 15 -10 15 -11 0z"/>
<path d="M476 232 c-15 -18 -15 -20 4 -37 20 -18 20 -18 20 18 0 43 -1 43 -24
19z"/>
<path d="M550 215 c0 -21 5 -25 30 -25 19 0 33 6 37 16 7 19 -13 34 -44 34
-18 0 -23 -6 -23 -25z"/>
<path d="M730 174 c0 -67 18 -72 22 -6 3 39 6 47 23 47 17 0 20 -8 23 -47 2
-27 7 -48 12 -48 5 0 10 21 12 48 3 39 6 47 23 47 17 0 20 -8 23 -47 2 -27 7
-48 13 -48 11 0 12 80 1 96 -4 7 -36 12 -79 11 l-73 0 0 -53z"/>
<path d="M925 219 c-4 -6 -4 -13 0 -17 3 -3 10 0 14 7 11 18 45 10 49 -12 3
-12 -3 -17 -20 -17 -33 0 -51 -14 -46 -36 2 -15 13 -19 46 -20 l42 -2 0 42 c0
23 -5 47 -12 54 -15 15 -64 16 -73 1z m63 -66 c-4 -22 -48 -31 -48 -10 0 19
10 27 32 27 13 0 18 -6 16 -17z"/>
<path d="M1040 173 c0 -29 5 -53 10 -53 6 0 10 17 10 38 0 46 12 65 36 60 15
-2 20 -14 22 -51 4 -59 22 -62 22 -3 0 52 -14 66 -63 64 l-37 -1 0 -54z"/>
<path d="M1175 219 c-4 -6 -4 -13 0 -17 3 -3 10 0 14 7 11 18 45 10 49 -12 3
-12 -3 -17 -20 -17 -33 0 -51 -14 -46 -36 2 -12 13 -20 28 -21 15 -1 18 0 8 3
-10 3 -18 14 -18 25 0 14 7 19 26 19 20 0 25 -4 22 -22 -2 -11 3 -23 10 -25
16 -6 17 78 0 95 -15 15 -64 16 -73 1z"/>
<path d="M1299 214 c-10 -12 -10 -20 -1 -34 6 -11 8 -21 3 -24 -4 -3 -8 -21
-9 -39 -1 -30 2 -35 25 -40 37 -7 73 9 73 32 0 21 -18 31 -56 31 -13 0 -24 5
-24 10 0 6 11 10 24 10 28 0 51 24 43 44 -3 8 -1 17 6 20 7 2 -7 5 -29 5 -26
1 -46 -5 -55 -15z m59 -17 c4 -20 -25 -34 -40 -19 -15 15 -1 44 19 40 10 -2
19 -11 21 -21z m17 -92 c0 -5 -17 -11 -37 -13 -36 -3 -47 5 -31 22 11 10 68 3
68 -9z"/>
<path d="M1422 218 c-18 -18 -14 -63 6 -81 22 -20 53 -22 70 -5 21 21 13 32
-9 12 -22 -20 -51 -11 -57 20 -3 13 5 16 37 16 27 0 41 4 41 13 0 21 -22 37
-50 37 -14 0 -31 -5 -38 -12z m72 -13 c4 -12 -3 -15 -29 -15 -33 0 -43 8 -28
23 12 13 51 7 57 -8z"/>
<path d="M1540 173 c0 -29 5 -53 10 -53 6 0 10 17 10 38 0 45 13 67 34 59 11
-5 16 -19 16 -52 0 -60 18 -58 22 3 3 39 6 47 23 47 17 0 20 -8 23 -47 2 -27
7 -48 13 -48 10 0 12 69 3 94 -7 19 -45 21 -62 4 -9 -9 -12 -9 -12 0 0 7 -15
11 -40 10 l-40 -1 0 -54z"/>
<path d="M1742 218 c-17 -17 -15 -64 4 -82 18 -19 55 -21 72 -4 19 19 14 33
-6 15 -23 -21 -36 -21 -56 -1 -23 22 -11 34 35 34 25 0 39 5 39 13 0 21 -22
37 -50 37 -14 0 -31 -5 -38 -12z m68 -13 c11 -13 7 -15 -24 -15 -34 0 -44 8
-29 23 11 12 40 8 53 -8z"/>
<path d="M1860 173 c0 -29 5 -53 10 -53 6 0 10 17 10 38 0 46 12 65 36 60 15
-2 20 -14 22 -51 4 -59 22 -62 22 -3 0 52 -14 66 -63 64 l-37 -1 0 -54z"/>
<path d="M636 165 c-11 -8 -35 -15 -53 -15 -29 0 -33 -3 -33 -25 0 -22 4 -25
35 -25 39 0 75 28 75 60 0 24 0 23 -24 5z"/>
</g>
</svg>
